<svg width="51" height="52" viewBox="0 0 51 52" fill="none" xmlns="http://www.w3.org/2000/svg">
<path fill-rule="evenodd" clip-rule="evenodd" d="M30.137 3.58492C30.3199 1.9382 31.8032 0.751563 33.4499 0.934501C37.9875 1.43859 41.9833 3.62541 45.072 6.71017C48.1666 9.80087 50.3409 13.8016 50.8499 18.3312C51.0349 19.9777 49.8501 21.4624 48.2036 21.6474C46.5572 21.8324 45.0724 20.6476 44.8874 19.0011C44.5504 16.0018 43.0981 13.2187 40.832 10.9555C38.56 8.68633 35.7798 7.23025 32.7874 6.89782C31.1407 6.71488 29.9541 5.23164 30.137 3.58492ZM15.7298 7.26653C15.4633 7.03775 15.1214 6.91276 14.7679 6.91623L14.7385 6.91637H8.06551C7.26551 6.91781 6.55315 7.70459 6.62395 8.48654C6.63216 8.57727 6.63624 8.66833 6.63617 8.75944C6.6201 29.1502 22.492 45.1649 43.0147 45.1488C43.1054 45.1487 43.1961 45.1528 43.2865 45.1609C44.0894 45.2334 44.8705 44.5055 44.8673 43.72L44.8673 43.7078V37.0463C44.8673 37.0214 44.8676 36.9966 44.8682 36.9717C44.877 36.6201 44.756 36.2767 44.5269 36.0068C44.4236 35.8852 44.0565 35.573 43.258 35.1902C42.5091 34.8311 41.5747 34.502 40.568 34.2404C38.4117 33.6801 36.5792 33.5918 35.9192 33.7323C35.6603 33.7874 35.2516 33.9886 34.5883 34.6133C34.2689 34.9141 33.9475 35.2567 33.5767 35.6612C33.5277 35.7146 33.4771 35.7699 33.4253 35.8266C33.1112 36.17 32.7486 36.5666 32.3875 36.927C31.4331 37.8795 29.9604 38.0783 28.7876 37.4127C22.7483 33.9855 17.7471 28.9945 14.3122 22.9657C13.6427 21.7905 13.8423 20.3126 14.7996 19.3571C15.1607 18.9968 15.5581 18.6349 15.9022 18.3215C15.959 18.2697 16.0144 18.2193 16.068 18.1704C16.4732 17.8002 16.8165 17.4795 17.1179 17.1607C17.7444 16.4982 17.9442 16.0917 17.9986 15.8373C18.1382 15.1839 18.0513 13.3663 17.4934 11.2203C17.2331 10.2191 16.9055 9.28859 16.548 8.54132C16.1673 7.74544 15.8553 7.3742 15.7298 7.26653L17.6837 4.99006L15.7298 7.26653ZM14.7256 0.916373C16.5257 0.902698 18.2709 1.5406 19.6376 2.71359C20.6759 3.60481 21.4239 4.83033 21.9605 5.95195C22.5204 7.12218 22.9674 8.42995 23.3004 9.71061C23.9289 12.1284 24.3025 15.0489 23.8661 17.0911C23.4708 18.9412 22.3851 20.3232 21.4778 21.2828C21.2409 21.5334 20.9988 21.7726 20.7638 21.9969C23.1411 25.5454 26.1956 28.5929 29.7528 30.9647C29.9794 30.7281 30.2213 30.484 30.4748 30.2453C31.4369 29.3393 32.8202 28.2575 34.6701 27.8637C36.7151 27.4284 39.6474 27.8019 42.077 28.4332C43.3633 28.7675 44.6771 29.2166 45.8519 29.7798C46.9772 30.3193 48.2093 31.0735 49.1009 32.1237C50.2739 33.5054 50.9021 35.2672 50.8673 37.0788V43.7031C50.8802 47.9571 47.1718 51.4458 42.8986 51.1488C19.1404 51.1043 0.680737 32.4697 0.636238 8.87595C0.338476 4.60767 3.82498 0.920356 8.06092 0.916375L8.06374 0.916372L14.7256 0.916373ZM28.945 11.9458C29.2623 10.3197 30.8378 9.25857 32.464 9.57584C34.6993 10.012 37.0959 11.0257 38.9275 12.8573C40.7591 14.6889 41.7729 17.0855 42.209 19.3208C42.5262 20.947 41.4652 22.5225 39.839 22.8398C38.2128 23.1571 36.6373 22.096 36.32 20.4698C36.049 19.0807 35.4644 17.8795 34.6848 17.1C33.9053 16.3204 32.7041 15.7358 31.315 15.4648C29.6888 15.1475 28.6277 13.572 28.945 11.9458Z" fill="#C0B7E8"/>
</svg>
