<svg width="42" height="62" viewBox="0 0 42 62" fill="none" xmlns="http://www.w3.org/2000/svg">
<path fill-rule="evenodd" clip-rule="evenodd" d="M21.2436 0.374512C32.5194 0.374512 41.6603 9.51536 41.6603 20.7912C41.6603 24.2005 40.827 27.4129 39.3476 30.2395L21.2436 61.6245L3.55904 31.0007C1.81863 27.9953 0.826965 24.5104 0.826965 20.7912C0.826965 9.51536 9.96782 0.374512 21.2436 0.374512ZM21.2436 6.20785C13.1895 6.20785 6.6603 12.737 6.6603 20.7912C6.6603 23.1072 7.19458 25.3294 8.20564 27.3355L8.69562 28.2304L21.2436 49.9578L33.8802 28.0774C35.1508 25.8834 35.827 23.3967 35.827 20.7912C35.827 12.737 29.2978 6.20785 21.2436 6.20785ZM21.2436 12.0412C26.0761 12.0412 29.9936 15.9587 29.9936 20.7912C29.9936 25.6237 26.0761 29.5412 21.2436 29.5412C16.4111 29.5412 12.4936 25.6237 12.4936 20.7912C12.4936 15.9587 16.4111 12.0412 21.2436 12.0412ZM21.2436 17.8745C19.6328 17.8745 18.327 19.1803 18.327 20.7912C18.327 22.402 19.6328 23.7078 21.2436 23.7078C22.8545 23.7078 24.1603 22.402 24.1603 20.7912C24.1603 19.1803 22.8545 17.8745 21.2436 17.8745Z" fill="#C0B7E8"/>
</svg>
