<svg width="56" height="44" viewBox="0 0 56 44" fill="none" xmlns="http://www.w3.org/2000/svg">
<path fill-rule="evenodd" clip-rule="evenodd" d="M2.04058 1.7547C3.0703 0.724976 4.5015 0.0827637 6.07699 0.0827637H49.4103C50.9858 0.0827637 52.417 0.724971 53.4467 1.7547C54.4764 2.78442 55.1187 4.21561 55.1187 5.7911V38.2911C55.1187 41.4437 52.5629 43.9994 49.4103 43.9994H6.07699C2.92436 43.9994 0.368652 41.4437 0.368652 38.2911V5.7911C0.368652 4.21561 1.01086 2.78442 2.04058 1.7547ZM10.6113 6.08276L26.0348 21.5061L23.9135 23.6275L26.0348 21.5062C26.9786 22.4499 28.5087 22.4499 29.4525 21.5062L31.5738 23.6275L29.4525 21.5061L44.876 6.08276H10.6113ZM49.1187 10.3254V37.9994H6.36865V10.3254L21.7922 25.7488C25.0791 29.0357 30.4082 29.0357 33.6951 25.7488L49.1187 10.3254Z" fill="#C0B7E8"/>
</svg>
